<?xml version="1.0" standalone="no"?><!DOCTYPE svg PUBLIC "-//W3C//DTD SVG 1.1//EN" "http://www.w3.org/Graphics/SVG/1.1/DTD/svg11.dtd"><svg t="1663947908247" class="icon" viewBox="0 0 1024 1024" version="1.1" xmlns="http://www.w3.org/2000/svg" p-id="2620" xmlns:xlink="http://www.w3.org/1999/xlink" width="200" height="200"><path d="M213.3 277.3c-35.3 0-64-28.7-64-64s28.7-64 64-64 64 28.7 64 64-28.7 64-64 64z" fill="#1296db" p-id="2621"></path><path d="M213.3 170.7c23.5 0 42.7 19.1 42.7 42.7 0 23.5-19.1 42.7-42.7 42.7-23.5 0-42.7-19.1-42.7-42.7 0.1-23.6 19.2-42.7 42.7-42.7m0-42.7c-47.1 0-85.3 38.2-85.3 85.3 0 47.1 38.2 85.3 85.3 85.3 47.1 0 85.3-38.2 85.3-85.3 0.1-47.1-38.1-85.3-85.3-85.3z" fill="#1296db" p-id="2622"></path><path d="M512 277.3c-35.3 0-64-28.7-64-64s28.7-64 64-64 64 28.7 64 64-28.7 64-64 64z" fill="#1296db" p-id="2623"></path><path d="M512 170.7c23.5 0 42.7 19.1 42.7 42.7 0 23.5-19.1 42.7-42.7 42.7-23.5 0-42.7-19.1-42.7-42.7s19.2-42.7 42.7-42.7m0-42.7c-47.1 0-85.3 38.2-85.3 85.3 0 47.1 38.2 85.3 85.3 85.3 47.1 0 85.3-38.2 85.3-85.3 0-47.1-38.2-85.3-85.3-85.3z" fill="#1296db" p-id="2624"></path><path d="M810.7 277.3c-35.3 0-64-28.7-64-64s28.7-64 64-64 64 28.7 64 64-28.7 64-64 64z" fill="#1296db" p-id="2625"></path><path d="M810.7 170.7c23.5 0 42.7 19.1 42.7 42.7 0 23.5-19.1 42.7-42.7 42.7S768 236.9 768 213.3c0-23.5 19.1-42.6 42.7-42.6m0-42.7c-47.1 0-85.3 38.2-85.3 85.3 0 47.1 38.2 85.3 85.3 85.3 47.1 0 85.3-38.2 85.3-85.3 0-47.1-38.2-85.3-85.3-85.3z" fill="#1296db" p-id="2626"></path><path d="M213.3 576c-35.3 0-64-28.7-64-64s28.7-64 64-64 64 28.7 64 64-28.7 64-64 64z" fill="#1296db" p-id="2627"></path><path d="M213.3 469.3c23.5 0 42.7 19.1 42.7 42.7s-19.1 42.7-42.7 42.7c-23.5 0-42.7-19.1-42.7-42.7 0.1-23.5 19.2-42.7 42.7-42.7m0-42.6c-47.1 0-85.3 38.2-85.3 85.3 0 47.1 38.2 85.3 85.3 85.3 47.1 0 85.3-38.2 85.3-85.3 0.1-47.1-38.1-85.3-85.3-85.3z" fill="#1296db" p-id="2628"></path><path d="M810.7 576c-35.3 0-64-28.7-64-64s28.7-64 64-64 64 28.7 64 64-28.7 64-64 64z" fill="#1296db" p-id="2629"></path><path d="M810.7 469.3c23.5 0 42.7 19.1 42.7 42.7s-19.1 42.7-42.7 42.7S768 535.5 768 512c0-23.5 19.1-42.7 42.7-42.7m0-42.6c-47.1 0-85.3 38.2-85.3 85.3 0 47.1 38.2 85.3 85.3 85.3 47.1 0 85.3-38.2 85.3-85.3 0-47.1-38.2-85.3-85.3-85.3z" fill="#1296db" p-id="2630"></path><path d="M213.3 874.7c-35.3 0-64-28.7-64-64s28.7-64 64-64 64 28.7 64 64-28.7 64-64 64z" fill="#1296db" p-id="2631"></path><path d="M213.3 768c23.5 0 42.7 19.1 42.7 42.7s-19.1 42.7-42.7 42.7c-23.5 0-42.7-19.1-42.7-42.7s19.2-42.7 42.7-42.7m0-42.7c-47.1 0-85.3 38.2-85.3 85.3 0 47.1 38.2 85.3 85.3 85.3 47.1 0 85.3-38.2 85.3-85.3 0.1-47.1-38.1-85.3-85.3-85.3z" fill="#1296db" p-id="2632"></path><path d="M512 874.7c-35.3 0-64-28.7-64-64s28.7-64 64-64 64 28.7 64 64-28.7 64-64 64z" fill="#1296db" p-id="2633"></path><path d="M512 768c23.5 0 42.7 19.1 42.7 42.7s-19.1 42.7-42.7 42.7c-23.5 0-42.7-19.1-42.7-42.7S488.5 768 512 768m0-42.7c-47.1 0-85.3 38.2-85.3 85.3 0 47.1 38.2 85.3 85.3 85.3 47.1 0 85.3-38.2 85.3-85.3 0-47.1-38.2-85.3-85.3-85.3z" fill="#1296db" p-id="2634"></path><path d="M810.7 874.7c-35.3 0-64-28.7-64-64s28.7-64 64-64 64 28.7 64 64-28.7 64-64 64z" fill="#1296db" p-id="2635"></path><path d="M810.7 768c23.5 0 42.7 19.1 42.7 42.7s-19.1 42.7-42.7 42.7-42.7-19.2-42.7-42.7 19.1-42.7 42.7-42.7m0-42.7c-47.1 0-85.3 38.2-85.3 85.3 0 47.1 38.2 85.3 85.3 85.3 47.1 0 85.3-38.2 85.3-85.3 0-47.1-38.2-85.3-85.3-85.3z" fill="#1296db" p-id="2636"></path></svg>