<?xml version="1.0" standalone="no"?><!DOCTYPE svg PUBLIC "-//W3C//DTD SVG 1.1//EN" "http://www.w3.org/Graphics/SVG/1.1/DTD/svg11.dtd"><svg t="1662472656769" class="icon" viewBox="0 0 1024 1024" version="1.1" xmlns="http://www.w3.org/2000/svg" p-id="9205" xmlns:xlink="http://www.w3.org/1999/xlink" width="200" height="200"><path d="M761.56865 467.894979a55.630061 55.630061 0 0 0-78.674584 0l-223.809112 223.809112-54.205818-54.205819a55.632881 55.632881 0 0 0-78.674585 0 55.630061 55.630061 0 0 0 0 78.671764l90.925889 90.93153a55.42418 55.42418 0 0 0 41.954514 16.168676 55.42418 55.42418 0 0 0 41.951694-16.168676l260.532002-260.532003a55.62724 55.62724 0 0 0 0-78.674584z" fill="#1296db" p-id="9206"></path><path d="M868.928322 146.664869a507.650745 507.650745 0 0 0-713.858477 0c-200.149767 197.949947-200.149767 524.030942 0.00282 721.978069a507.650745 507.650745 0 0 0 713.855657-0.002821c200.152587-197.949947 200.149767-524.028122 0-721.975248zM512.001904 902.491961A394.946639 394.946639 0 0 1 193.620278 273.989316a51.994717 51.994717 0 0 1 78.646382-6.069246l164.949828 164.949828a105.760572 105.760572 0 0 0 149.568011 0l164.949828-164.949828a51.994717 51.994717 0 0 1 78.646382 6.069246 394.904334 394.904334 0 0 1-318.381626 628.502645z" fill="#1296db" p-id="9207"></path></svg>