<?xml version="1.0" standalone="no"?><!DOCTYPE svg PUBLIC "-//W3C//DTD SVG 1.1//EN" "http://www.w3.org/Graphics/SVG/1.1/DTD/svg11.dtd"><svg t="1662394640192" class="icon" viewBox="0 0 1024 1024" version="1.1" xmlns="http://www.w3.org/2000/svg" p-id="3496" xmlns:xlink="http://www.w3.org/1999/xlink" width="200" height="200"><path d="M117.717333 1024l28.330667-6.144c8.832-1.877333 17.578667-3.626667 26.410667-5.376 13.568-2.645333 27.178667-5.248 40.746666-7.765333 10.24-1.962667 20.48-3.626667 30.762667-5.504l2.346667-0.64c10.666667-1.877333 21.248-3.84 31.872-5.12l51.797333-7.637334V-0.042667h-1.792c-26.88 0.170667-53.589333 0.682667-80.384 1.536-29.397333 0.768-59.477333 2.56-88.917333 4.48-12.757333 0.896-25.6 1.962667-38.357334 2.986667H118.613333v1014.784L117.717333 1024zM380.202667 0.64v978.858667c36.736-4.266667 73.386667-7.765333 110.165333-10.496a2616.576 2616.576 0 0 1 271.914667-6.442667c48.128 1.450667 96.128 4.224 143.957333 8.192V64.128a2453.034667 2453.034667 0 0 0-129.194667-25.898667 2640.384 2640.384 0 0 0-253.738666-31.189333A2496.128 2496.128 0 0 0 380.288 0.682667h-0.085333z m459.221333 631.338667l-1.962667-0.170667-23.936-2.602667a2608.853333 2608.853333 0 0 0-179.498666-12.416 2788.096 2788.096 0 0 0-180.181334 0.682667h-1.877333c-1.92 0-3.882667 0-5.76-0.682667a25.301333 25.301333 0 0 1-11.392-6.357333 24.789333 24.789333 0 0 1-6.656-21.12c0.341333-2.602667 1.237333-4.48 2.304-7.082667 1.152-1.877333 2.688-4.437333 4.437333-5.717333a23.765333 23.765333 0 0 1 6.101334-4.437333 37.973333 37.973333 0 0 1 7.68-2.602667h3.84c8.32 0 16.682667-0.682667 24.32-0.682667a2810.112 2810.112 0 0 1 177.877333 1.28 2486.186667 2486.186667 0 0 1 182.954667 14.08l6.442666 0.64c1.877333 0.682667 3.797333 0.682667 5.76 1.28a28.16 28.16 0 0 1 10.88 7.722667c1.877333 1.877333 3.157333 4.437333 4.48 6.997333 1.237333 2.602667 1.877333 5.12 1.877334 7.68a24.064 24.064 0 0 1-6.997334 19.2c-1.962667 1.962667-3.882667 3.2-5.76 4.48-2.005333 1.28-4.48 1.877333-7.082666 2.56-1.28 0.682667-1.92 0.682667-3.797334 0.682667h-2.005333l-2.048-3.413333z m1.493333-115.669334c-1.877333 0-1.877333 0-3.84-0.256l-23.68-3.029333a2114.090667 2114.090667 0 0 0-179.114666-15.317333 2402.304 2402.304 0 0 0-179.797334-2.56l-1.962666-0.682667c-1.92-0.64-3.84-0.64-5.76-1.237333a24.32 24.32 0 0 1-10.837334-7.082667c-1.28-1.92-3.242667-4.437333-3.84-6.314667a25.216 25.216 0 0 1 0.597334-22.4c1.322667-2.602667 2.602667-4.48 4.48-6.4s3.84-3.84 6.4-4.437333c2.602667-1.28 5.077333-2.56 7.68-2.56l3.84-0.682667 24.96-0.64a2687.317333 2687.317333 0 0 1 177.194666 3.84c61.397333 3.2 122.24 8.96 182.997334 16.64l6.357333 0.682667 3.882667 0.597333a22.058667 22.058667 0 0 1 11.52 7.082667c5.12 5.077333 7.68 12.117333 7.04 19.157333a13.056 13.056 0 0 1-1.92 7.04c-1.237333 2.56-2.602667 4.437333-3.84 6.4-1.28 1.877333-3.157333 3.2-5.802667 5.12-1.877333 1.237333-4.437333 1.92-6.997333 2.602667l-3.882667 0.597333H844.8l-3.882667 3.84z m0-115.669333c-1.877333 0-1.877333 0-3.84-0.256l-23.68-3.413333a2613.589333 2613.589333 0 0 0-179.114666-18.261334 2570.24 2570.24 0 0 0-179.797334-5.504h-1.962666l-3.84-0.682666a31.232 31.232 0 0 1-6.997334-2.901334 26.837333 26.837333 0 0 1-12.16-18.688c0-2.602667 0-5.12 0.682667-7.68a26.112 26.112 0 0 1 2.517333-7.253333 27.434667 27.434667 0 0 1 5.162667-6.144 25.258667 25.258667 0 0 1 17.92-7.04h24.277333c61.397333 0.384 122.837333 2.730667 183.637334 7.338667 59.52 4.48 118.357333 11.093333 177.194666 19.498666l6.4 0.896c1.962667 0.298667 2.602667 0.298667 3.84 0.810667 2.56 0.853333 5.12 1.962667 7.04 3.413333a15.36 15.36 0 0 1 5.76 5.248c1.322667 2.048 2.602667 4.309333 3.84 6.741334a25.088 25.088 0 0 1-17.237333 33.066666c-1.237333 0.512-1.962667 0.512-3.882667 0.597334l-1.877333 0.213333h-3.882667z m0-115.712c-1.877333 0-1.877333 0-3.84-0.298667l-23.68-3.84a2104.533333 2104.533333 0 0 0-179.114666-21.162666 2826.837333 2826.837333 0 0 0-179.797334-8.917334h-1.962666l-4.48-0.597333a27.050667 27.050667 0 0 1-13.013334-8.32c-1.536-1.92-2.901333-4.437333-4.010666-6.357333a38.442667 38.442667 0 0 1-1.877334-7.722667 26.666667 26.666667 0 0 1 7.722667-21.077333 25.173333 25.173333 0 0 1 11.904-6.4c1.92-0.64 3.84-0.64 5.76-0.64 8.064 0 16.213333 0.213333 24.32 0.341333 61.312 1.450667 122.496 4.821333 183.637333 10.496 59.178667 5.077333 118.186667 12.8 176.853334 22.357333l5.76 0.682667c1.706667 0 2.218667 0 3.84 0.597333 2.645333 0.682667 4.778667 1.962667 7.04 3.242667 1.962667 1.237333 3.84 3.157333 5.333333 5.077333a26.965333 26.965333 0 0 1 4.48 19.84 31.701333 31.701333 0 0 1-2.602667 7.082667 22.016 22.016 0 0 1-5.12 5.76 25.6 25.6 0 0 1-11.562666 6.357333h-5.76l0.170666 3.498667z m-668.586666-21.717333a27.221333 27.221333 0 0 1-11.562667-2.688 25.856 25.856 0 0 1-14.037333-21.546667c0-2.432 0.64-4.736 1.28-7.04a19.456 19.456 0 0 1 3.84-8.106667 28.288 28.288 0 0 1 6.997333-6.912 31.018667 31.018667 0 0 1 10.282667-3.925333l20.48-1.877333a3044.266667 3044.266667 0 0 1 83.157333-6.144h2.56a23.168 23.168 0 0 1 11.562667 3.029333 25.173333 25.173333 0 0 1 13.397333 22.144c0 2.346667-0.64 4.650667-1.237333 6.869333a20.181333 20.181333 0 0 1-3.882667 8.064 23.552 23.552 0 0 1-7.04 7.04 28.757333 28.757333 0 0 1-10.24 3.84c-4.437333 0.64-8.917333 0.64-13.397333 1.28-5.802667 0.64-12.202667 0.64-18.602667 1.322667l-49.834667 3.754667-12.16 1.322666a34.517333 34.517333 0 0 1-8.362666 0.64l-3.2-1.066666z m667.946666-93.909334l-3.882666-0.426666-23.637334-4.266667a2678.186667 2678.186667 0 0 0-179.797333-24.064 2734.293333 2734.293333 0 0 0-179.797333-11.562667h-1.92l-3.84-0.768a27.221333 27.221333 0 0 1-7.04-3.029333 31.573333 31.573333 0 0 1-5.76-5.162667c-5.12-5.888-7.04-14.08-5.12-21.589333 0.682667-2.602667 1.92-5.12 3.157333-7.68 1.322667-2.602667 3.242667-4.48 5.162667-6.4a26.752 26.752 0 0 1 12.16-6.4c1.92-0.64 3.797333-0.64 5.76-0.64l24.917333 0.64c59.52 2.602667 118.357333 6.4 177.237333 12.842667 61.397333 6.314667 122.197333 15.317333 182.954667 25.6l6.4 0.597333c1.962667 0 2.602667 0 3.84 0.682667a24.746667 24.746667 0 0 1 7.04 3.157333 25.813333 25.813333 0 0 1 10.197333 17.962667c0.682667 2.56 0 5.12-0.64 7.722666a13.354667 13.354667 0 0 1-2.517333 6.997334 43.946667 43.946667 0 0 1-4.48 5.76 21.589333 21.589333 0 0 1-12.202667 5.76l-3.669333 0.597333h-1.962667l-2.56 3.669333zM171.605333 136.490667a25.088 25.088 0 0 1-14.165333-45.909334 25.6 25.6 0 0 1 11.093333-4.224c6.741333-0.597333 13.397333-0.597333 20.181334-1.237333 27.733333-1.92 55.509333-3.2 83.157333-4.48h2.048c3.882667 0.682667 7.722667 1.28 10.922667 3.2 7.637333 4.48 12.8 13.44 12.8 22.357333a24.405333 24.405333 0 0 1-1.28 7.082667 36.821333 36.821333 0 0 1-4.437334 8.32 19.626667 19.626667 0 0 1-7.765333 6.4 21.589333 21.589333 0 0 1-10.88 3.2c-4.437333 0.597333-8.96 0.597333-14.08 0.597333l-19.157333 1.322667c-17.28 1.237333-33.92 1.92-50.602667 3.157333l-12.8 0.682667c-3.2 0.64-5.717333 0.64-8.277333 0.64l3.242666-1.109333z" fill="#1296db" p-id="3497"></path></svg>