<?xml version="1.0" standalone="no"?><!DOCTYPE svg PUBLIC "-//W3C//DTD SVG 1.1//EN" "http://www.w3.org/Graphics/SVG/1.1/DTD/svg11.dtd"><svg t="1661482369362" class="icon" viewBox="0 0 1024 1024" version="1.1" xmlns="http://www.w3.org/2000/svg" p-id="8880" xmlns:xlink="http://www.w3.org/1999/xlink" width="200" height="200"><path d="M927.424 64c-230.272 0.256-425.856 126.912-565.44 256H96l-32 32v192l9.408 22.656 63.424 63.424 0.064 0.576 256 256 0.576 0.064 63.936 63.936L480 960h192l32-32v-265.856c129.216-139.392 255.744-334.912 255.488-566.144l-32.064-32zM128 384h169.152a1524.992 1524.992 0 0 0-142.4 173.44L128 530.816V384z m364.8 512l-26.88-27.072a1509.76 1509.76 0 0 0 173.76-141.824V896H492.8z m-73.152-73.216L200.704 603.968C264.192 512 536.256 150.72 894.592 129.024c-20.864 359.168-383.168 630.592-474.944 693.76zM256 960v-64H128v-128H64v192h192z m431.872-490.688a96 96 0 1 0-159.616-106.624 96 96 0 0 0 159.616 106.624z" p-id="8881" fill="#1296db"></path></svg>